<?xml version="1.0" encoding="utf-8"?><!-- Uploaded to: SVG Repo, www.svgrepo.com, Generator: SVG Repo Mixer Tools -->
<svg width="800px" height="800px" viewBox="0 0 24 24" fill="none" xmlns="http://www.w3.org/2000/svg">
<path d="M6 7C5.44772 7 5 7.44772 5 8C5 8.55228 5.44772 9 6 9H10C10.5523 9 11 8.55228 11 8C11 7.44772 10.5523 7 10 7H6Z" fill="#000000"/>
<path fill-rule="evenodd" clip-rule="evenodd" d="M2 8C2 5.79086 3.79086 4 6 4H18C20.2091 4 22 5.79086 22 8V16C22 18.2091 20.2091 20 18 20H6C3.79086 20 2 18.2091 2 16V8ZM18 6C19.1046 6 20 6.89543 20 8V10H4V8C4 6.89543 4.89543 6 6 6H18ZM20 12H4V16C4 17.1046 4.89543 18 6 18H18C19.1046 18 20 17.1046 20 16V12Z" fill="#000000"/>
</svg>